<svg xmlns="http://www.w3.org/2000/svg" width="20" height="20" viewBox="0 0 20 20" fill="none">
  <path d="M15.3841 12.2082L13.3521 11.9762C13.1132 11.9481 12.871 11.9746 12.6437 12.0536C12.4165 12.1326 12.2101 12.262 12.0401 12.4322L10.5681 13.9042C8.2972 12.749 6.45133 10.9031 5.29608 8.63221L6.77608 7.1522C7.12008 6.80821 7.28808 6.32821 7.23208 5.84021L7.00008 3.82421C6.95489 3.43388 6.76765 3.07382 6.47405 2.81268C6.18045 2.55154 5.80102 2.40756 5.40808 2.40821H4.02408C3.12008 2.40821 2.36808 3.16021 2.42408 4.06421C2.84808 10.8962 8.31208 16.3522 15.1361 16.7762C16.0401 16.8322 16.7921 16.0802 16.7921 15.1762V13.7922C16.8001 12.9842 16.1921 12.3042 15.3841 12.2082Z" fill="white"/>
</svg>